<svg xmlns="http://www.w3.org/2000/svg" xmlns:xlink="http://www.w3.org/1999/xlink" version="1.1" x="0px" y="0px" viewBox="0 0 32 30" style="enable-background:new 0 0 32 32;" xml:space="preserve"><title>photo</title><path fill="#34495E" d="M27,28H5c-1.7,0-3-1.3-3-3V11c0-1.7,1.3-3,3-3h4c0.3,0,0.6-0.2,0.8-0.4l1.7-2.4C12.1,4.4,13,4,14,4h4  c0.9,0,1.8,0.4,2.4,1.2l1.9,2.4C22.4,7.8,22.7,8,23,8h4c1.7,0,3,1.3,3,3v14C30,26.7,28.7,28,27,28z M5,10c-0.6,0-1,0.4-1,1v14  c0,0.6,0.4,1,1,1h22c0.6,0,1-0.4,1-1V11c0-0.6-0.4-1-1-1h-4c-0.9,0-1.8-0.4-2.4-1.2l-1.9-2.4C18.6,6.2,18.3,6,18,6h-4  c-0.3,0-0.6,0.2-0.8,0.4l-1.8,2.4C10.8,9.5,10,10,9,10H5z M16,24c-3.3,0-6-2.7-6-6s2.7-6,6-6s6,2.7,6,6S19.3,24,16,24z M16,14  c-2.2,0-4,1.8-4,4s1.8,4,4,4s4-1.8,4-4S18.2,14,16,14z M25.5,14c-0.8,0-1.5-0.7-1.5-1.5s0.7-1.5,1.5-1.5s1.5,0.7,1.5,1.5  S26.3,14,25.5,14z M25.5,12c-0.3,0-0.5,0.2-0.5,0.5s0.2,0.5,0.5,0.5s0.5-0.2,0.5-0.5S25.8,12,25.5,12z"/></svg>
